<svg id="my-svg" width="100%" xmlns="http://www.w3.org/2000/svg" xmlns:xlink="http://www.w3.org/1999/xlink" class="flowchart" style="max-width: 3823px; background-color: white;" viewBox="0 0 3823 438.25" role="graphics-document document" aria-roledescription="flowchart-v2"><style>#my-svg{font-size:22px;fill:#111827;}@keyframes edge-animation-frame{from{stroke-dashoffset:0;}}@keyframes dash{to{stroke-dashoffset:0;}}#my-svg .edge-animation-slow{stroke-dasharray:9,5!important;stroke-dashoffset:900;animation:dash 50s linear infinite;stroke-linecap:round;}#my-svg .edge-animation-fast{stroke-dasharray:9,5!important;stroke-dashoffset:900;animation:dash 20s linear infinite;stroke-linecap:round;}#my-svg .error-icon{fill:hsl(180, 0%, 100%);}#my-svg .error-text{fill:rgb(0, 0, 0);stroke:rgb(0, 0, 0);}#my-svg .edge-thickness-normal{stroke-width:1px;}#my-svg .edge-thickness-thick{stroke-width:3.5px;}#my-svg .edge-pattern-solid{stroke-dasharray:0;}#my-svg .edge-thickness-invisible{stroke-width:0;fill:none;}#my-svg .edge-pattern-dashed{stroke-dasharray:3;}#my-svg .edge-pattern-dotted{stroke-dasharray:2;}#my-svg .marker{fill:#374151;stroke:#374151;}#my-svg .marker.cross{stroke:#374151;}#my-svg svg{font-size:22px;}#my-svg p{margin:0;}#my-svg .label{color:#111827;}#my-svg .cluster-label text{fill:rgb(0, 0, 0);}#my-svg .cluster-label span{color:rgb(0, 0, 0);}#my-svg .cluster-label span p{background-color:transparent;}#my-svg .label text,#my-svg span{fill:#111827;color:#111827;}#my-svg .node rect,#my-svg .node circle,#my-svg .node ellipse,#my-svg .node polygon,#my-svg .node path{fill:#ffffff;stroke:#111827;stroke-width:1px;}#my-svg .rough-node .label text,#my-svg .node .label text,#my-svg .image-shape .label,#my-svg .icon-shape .label{text-anchor:middle;}#my-svg .node .katex path{fill:#000;stroke:#000;stroke-width:1px;}#my-svg .rough-node .label,#my-svg .node .label,#my-svg .image-shape .label,#my-svg .icon-shape .label{text-align:center;}#my-svg .node.clickable{cursor:pointer;}#my-svg .root .anchor path{fill:#374151!important;stroke-width:0;stroke:#374151;}#my-svg .arrowheadPath{fill:#000000;}#my-svg .edgePath .path{stroke:#374151;stroke-width:1px;}#my-svg .flowchart-link{stroke:#374151;fill:none;}#my-svg .edgeLabel{background-color:#ffffff;text-align:center;}#my-svg .edgeLabel p{background-color:#ffffff;}#my-svg .edgeLabel rect{opacity:0.5;background-color:#ffffff;fill:#ffffff;}#my-svg .labelBkg{background-color:rgba(255, 255, 255, 0.5);}#my-svg .cluster rect{fill:#f8fafc;stroke:#cbd5e1;stroke-width:1px;}#my-svg .cluster text{fill:rgb(0, 0, 0);}#my-svg .cluster span{color:rgb(0, 0, 0);}#my-svg div.mermaidTooltip{position:absolute;text-align:center;max-width:200px;padding:2px;font-size:12px;background:hsl(180, 0%, 100%);border:1px solid hsl(180, 0%, 90%);border-radius:2px;pointer-events:none;z-index:100;}#my-svg .flowchartTitleText{text-anchor:middle;font-size:18px;fill:#111827;}#my-svg rect.text{fill:none;stroke-width:0;}#my-svg .icon-shape,#my-svg .image-shape{background-color:#ffffff;text-align:center;}#my-svg .icon-shape p,#my-svg .image-shape p{background-color:#ffffff;padding:2px;}#my-svg .icon-shape .label rect,#my-svg .image-shape .label rect{opacity:0.5;background-color:#ffffff;fill:#ffffff;}#my-svg .label-icon{display:inline-block;height:1em;overflow:visible;vertical-align:-0.125em;}#my-svg .node .label-icon path{fill:currentColor;stroke:revert;stroke-width:revert;}#my-svg .node .neo-node{stroke:#111827;}#my-svg [data-look="neo"].node rect,#my-svg [data-look="neo"].cluster rect,#my-svg [data-look="neo"].node polygon{stroke:url(#my-svg-gradient);filter:drop-shadow( 1px 2px 2px rgba(185,185,185,1));}#my-svg [data-look="neo"].node path{stroke:url(#my-svg-gradient);stroke-width:1px;}#my-svg [data-look="neo"].node .outer-path{filter:drop-shadow( 1px 2px 2px rgba(185,185,185,1));}#my-svg [data-look="neo"].node .neo-line path{stroke:#111827;filter:none;}#my-svg [data-look="neo"].node circle{stroke:url(#my-svg-gradient);filter:drop-shadow( 1px 2px 2px rgba(185,185,185,1));}#my-svg [data-look="neo"].node circle .state-start{fill:#000000;}#my-svg [data-look="neo"].icon-shape .icon{fill:url(#my-svg-gradient);filter:drop-shadow( 1px 2px 2px rgba(185,185,185,1));}#my-svg [data-look="neo"].icon-shape .icon-neo path{stroke:url(#my-svg-gradient);filter:drop-shadow( 1px 2px 2px rgba(185,185,185,1));}#my-svg :root{--mermaid-font-family:"trebuchet ms",verdana,arial,sans-serif;}#my-svg .user&gt;*{fill:#111827!important;stroke:#111827!important;color:#ffffff!important;stroke-width:2px!important;}#my-svg .user span{fill:#111827!important;stroke:#111827!important;color:#ffffff!important;stroke-width:2px!important;}#my-svg .user tspan{fill:#ffffff!important;}#my-svg .interface&gt;*{fill:#dbeafe!important;stroke:#2563eb!important;color:#111827!important;stroke-width:2px!important;}#my-svg .interface span{fill:#dbeafe!important;stroke:#2563eb!important;color:#111827!important;stroke-width:2px!important;}#my-svg .interface tspan{fill:#111827!important;}#my-svg .data&gt;*{fill:#fef3c7!important;stroke:#d97706!important;color:#111827!important;stroke-width:2px!important;}#my-svg .data span{fill:#fef3c7!important;stroke:#d97706!important;color:#111827!important;stroke-width:2px!important;}#my-svg .data tspan{fill:#111827!important;}#my-svg .gate&gt;*{fill:#fee2e2!important;stroke:#dc2626!important;color:#111827!important;stroke-width:2px!important;}#my-svg .gate span{fill:#fee2e2!important;stroke:#dc2626!important;color:#111827!important;stroke-width:2px!important;}#my-svg .gate tspan{fill:#111827!important;}#my-svg .train&gt;*{fill:#dcfce7!important;stroke:#16a34a!important;color:#111827!important;stroke-width:2px!important;}#my-svg .train span{fill:#dcfce7!important;stroke:#16a34a!important;color:#111827!important;stroke-width:2px!important;}#my-svg .train tspan{fill:#111827!important;}#my-svg .output&gt;*{fill:#ede9fe!important;stroke:#7c3aed!important;color:#111827!important;stroke-width:2px!important;}#my-svg .output span{fill:#ede9fe!important;stroke:#7c3aed!important;color:#111827!important;stroke-width:2px!important;}#my-svg .output tspan{fill:#111827!important;}#my-svg .verify&gt;*{fill:#f1f5f9!important;stroke:#64748b!important;color:#111827!important;stroke-width:2px!important;}#my-svg .verify span{fill:#f1f5f9!important;stroke:#64748b!important;color:#111827!important;stroke-width:2px!important;}#my-svg .verify tspan{fill:#111827!important;}</style><g><marker id="my-svg_flowchart-v2-pointEnd" class="marker flowchart-v2" viewBox="0 0 10 10" refX="5" refY="5" markerUnits="userSpaceOnUse" markerWidth="8" markerHeight="8" orient="auto"><path d="M 0 0 L 10 5 L 0 10 z" class="arrowMarkerPath" style="stroke-width: 1; stroke-dasharray: 1, 0;"/></marker><marker id="my-svg_flowchart-v2-pointStart" class="marker flowchart-v2" viewBox="0 0 10 10" refX="4.5" refY="5" markerUnits="userSpaceOnUse" markerWidth="8" markerHeight="8" orient="auto"><path d="M 0 5 L 10 10 L 10 0 z" class="arrowMarkerPath" style="stroke-width: 1; stroke-dasharray: 1, 0;"/></marker><marker id="my-svg_flowchart-v2-pointEnd-margin" class="marker flowchart-v2" viewBox="0 0 11.5 14" refX="11.5" refY="7" markerUnits="userSpaceOnUse" markerWidth="10.5" markerHeight="14" orient="auto"><path d="M 0 0 L 11.5 7 L 0 14 z" class="arrowMarkerPath" style="stroke-width: 0; stroke-dasharray: 1, 0;"/></marker><marker id="my-svg_flowchart-v2-pointStart-margin" class="marker flowchart-v2" viewBox="0 0 11.5 14" refX="1" refY="7" markerUnits="userSpaceOnUse" markerWidth="11.5" markerHeight="14" orient="auto"><polygon points="0,7 11.5,14 11.5,0" class="arrowMarkerPath" style="stroke-width: 0; stroke-dasharray: 1, 0;"/></marker><marker id="my-svg_flowchart-v2-circleEnd" class="marker flowchart-v2" viewBox="0 0 10 10" refX="11" refY="5" markerUnits="userSpaceOnUse" markerWidth="11" markerHeight="11" orient="auto"><circle cx="5" cy="5" r="5" class="arrowMarkerPath" style="stroke-width: 1; stroke-dasharray: 1, 0;"/></marker><marker id="my-svg_flowchart-v2-circleStart" class="marker flowchart-v2" viewBox="0 0 10 10" refX="-1" refY="5" markerUnits="userSpaceOnUse" markerWidth="11" markerHeight="11" orient="auto"><circle cx="5" cy="5" r="5" class="arrowMarkerPath" style="stroke-width: 1; stroke-dasharray: 1, 0;"/></marker><marker id="my-svg_flowchart-v2-circleEnd-margin" class="marker flowchart-v2" viewBox="0 0 10 10" refY="5" refX="12.25" markerUnits="userSpaceOnUse" markerWidth="14" markerHeight="14" orient="auto"><circle cx="5" cy="5" r="5" class="arrowMarkerPath" style="stroke-width: 0; stroke-dasharray: 1, 0;"/></marker><marker id="my-svg_flowchart-v2-circleStart-margin" class="marker flowchart-v2" viewBox="0 0 10 10" refX="-2" refY="5" markerUnits="userSpaceOnUse" markerWidth="14" markerHeight="14" orient="auto"><circle cx="5" cy="5" r="5" class="arrowMarkerPath" style="stroke-width: 0; stroke-dasharray: 1, 0;"/></marker><marker id="my-svg_flowchart-v2-crossEnd" class="marker cross flowchart-v2" viewBox="0 0 11 11" refX="12" refY="5.2" markerUnits="userSpaceOnUse" markerWidth="11" markerHeight="11" orient="auto"><path d="M 1,1 l 9,9 M 10,1 l -9,9" class="arrowMarkerPath" style="stroke-width: 2; stroke-dasharray: 1, 0;"/></marker><marker id="my-svg_flowchart-v2-crossStart" class="marker cross flowchart-v2" viewBox="0 0 11 11" refX="-1" refY="5.2" markerUnits="userSpaceOnUse" markerWidth="11" markerHeight="11" orient="auto"><path d="M 1,1 l 9,9 M 10,1 l -9,9" class="arrowMarkerPath" style="stroke-width: 2; stroke-dasharray: 1, 0;"/></marker><marker id="my-svg_flowchart-v2-crossEnd-margin" class="marker cross flowchart-v2" viewBox="0 0 15 15" refX="17.7" refY="7.5" markerUnits="userSpaceOnUse" markerWidth="12" markerHeight="12" orient="auto"><path d="M 1,1 L 14,14 M 1,14 L 14,1" class="arrowMarkerPath" style="stroke-width: 2.5;"/></marker><marker id="my-svg_flowchart-v2-crossStart-margin" class="marker cross flowchart-v2" viewBox="0 0 15 15" refX="-3.5" refY="7.5" markerUnits="userSpaceOnUse" markerWidth="12" markerHeight="12" orient="auto"><path d="M 1,1 L 14,14 M 1,14 L 14,1" class="arrowMarkerPath" style="stroke-width: 2.5; stroke-dasharray: 1, 0;"/></marker><g class="root"><g class="clusters"/><g class="edgePaths"><path d="M188.338,109.25L217.422,109.167C246.507,109.083,304.675,108.917,345.569,109.837C386.463,110.756,410.082,112.763,421.892,113.766L433.702,114.769" id="my-svg-L_U_UI_0" class="edge-thickness-normal edge-pattern-solid edge-thickness-normal edge-pattern-solid flowchart-link" style=";" data-edge="true" data-et="edge" data-id="L_U_UI_0" data-points="W3sieCI6MTg4LjMzNzk0NjYxMzE3NzU0LCJ5IjoxMDkuMjV9LHsieCI6MzYyLjg0Mzc1LCJ5IjoxMDguNzV9LHsieCI6NDM3LjY4NzUsInkiOjExNS4xMDc2MzYzNjM2MzYzNn1d" data-look="classic" marker-end="url(#my-svg_flowchart-v2-pointEnd)"/><path d="M717.688,127L730.161,127C742.635,127,767.583,127,791.865,127C816.146,127,839.76,127,851.568,127L863.375,127" id="my-svg-L_UI_DATA_0" class="edge-thickness-normal edge-pattern-solid edge-thickness-normal edge-pattern-solid flowchart-link" style=";" data-edge="true" data-et="edge" data-id="L_UI_DATA_0" data-points="W3sieCI6NzE3LjY4NzUsInkiOjEyN30seyJ4Ijo3OTIuNTMxMjUsInkiOjEyN30seyJ4Ijo4NjcuMzc1LCJ5IjoxMjd9XQ==" data-look="classic" marker-end="url(#my-svg_flowchart-v2-pointEnd)"/><path d="M1147.375,113.75L1170.708,111.542C1194.042,109.333,1240.708,104.917,1286.717,106.332C1332.725,107.748,1378.075,114.996,1400.75,118.62L1423.425,122.244" id="my-svg-L_DATA_REVIEW_0" class="edge-thickness-normal edge-pattern-solid edge-thickness-normal edge-pattern-solid flowchart-link" style=";" data-edge="true" data-et="edge" data-id="L_DATA_REVIEW_0" data-points="W3sieCI6MTE0Ny4zNzUsInkiOjExMy43NX0seyJ4IjoxMjg3LjM3NSwieSI6MTAwLjV9LHsieCI6MTQyNy4zNzUsInkiOjEyMi44NzV9XQ==" data-look="classic" marker-end="url(#my-svg_flowchart-v2-pointEnd)"/><path d="M1707.375,145.25L1723.01,145.25C1738.646,145.25,1769.917,145.25,1800.586,152.452C1831.256,159.653,1861.324,174.056,1876.358,181.258L1891.393,188.46" id="my-svg-L_REVIEW_TRAIN_0" class="edge-thickness-normal edge-pattern-solid edge-thickness-normal edge-pattern-solid flowchart-link" style=";" data-edge="true" data-et="edge" data-id="L_REVIEW_TRAIN_0" data-points="W3sieCI6MTcwNy4zNzUsInkiOjE0NS4yNX0seyJ4IjoxODAxLjE4NzUsInkiOjE0NS4yNX0seyJ4IjoxODk1LCJ5IjoxOTAuMTg3NzE3MTg3OTE3NjZ9XQ==" data-look="classic" marker-end="url(#my-svg_flowchart-v2-pointEnd)"/><path d="M2175,257.25L2181.667,257.25C2188.333,257.25,2201.667,257.25,2214.333,257.25C2227,257.25,2239,257.25,2245,257.25L2251,257.25" id="my-svg-L_TRAIN_QC_0" class="edge-thickness-normal edge-pattern-solid edge-thickness-normal edge-pattern-solid flowchart-link" style=";" data-edge="true" data-et="edge" data-id="L_TRAIN_QC_0" data-points="W3sieCI6MjE3NSwieSI6MjU3LjI1fSx7IngiOjIyMTUsInkiOjI1Ny4yNX0seyJ4IjoyMjU1LCJ5IjoyNTcuMjV9XQ==" data-look="classic" marker-end="url(#my-svg_flowchart-v2-pointEnd)"/><path d="M2533.214,171.25L2540.179,166.917C2547.143,162.583,2561.071,153.917,2574.036,149.583C2587,145.25,2599,145.25,2605,145.25L2611,145.25" id="my-svg-L_QC_ACCEPT_0" class="edge-thickness-normal edge-pattern-solid edge-thickness-normal edge-pattern-solid flowchart-link" style=";" data-edge="true" data-et="edge" data-id="L_QC_ACCEPT_0" data-points="W3sieCI6MjUzMy4yMTQyODU3MTQyODYsInkiOjE3MS4yNX0seyJ4IjoyNTc1LCJ5IjoxNDUuMjV9LHsieCI6MjYxNSwieSI6MTQ1LjI1fV0=" data-look="classic" marker-end="url(#my-svg_flowchart-v2-pointEnd)"/><path d="M2895,132L2918.333,129.792C2941.667,127.583,2988.333,123.167,3034.449,136.438C3080.564,149.709,3126.128,180.668,3148.91,196.147L3171.691,211.627" id="my-svg-L_ACCEPT_OUT_0" class="edge-thickness-normal edge-pattern-solid edge-thickness-normal edge-pattern-solid flowchart-link" style=";" data-edge="true" data-et="edge" data-id="L_ACCEPT_OUT_0" data-points="W3sieCI6Mjg5NSwieSI6MTMyfSx7IngiOjMwMzUsInkiOjExOC43NX0seyJ4IjozMTc1LCJ5IjoyMTMuODc1fV0=" data-look="classic" marker-end="url(#my-svg_flowchart-v2-pointEnd)"/><path d="M3455,309L3461.667,309C3468.333,309,3481.667,309,3494.333,309C3507,309,3519,309,3525,309L3531,309" id="my-svg-L_OUT_USE_0" class="edge-thickness-normal edge-pattern-solid edge-thickness-normal edge-pattern-solid flowchart-link" style=";" data-edge="true" data-et="edge" data-id="L_OUT_USE_0" data-points="W3sieCI6MzQ1NSwieSI6MzA5fSx7IngiOjM0OTUsInkiOjMwOX0seyJ4IjozNTM1LCJ5IjozMDl9XQ==" data-look="classic" marker-end="url(#my-svg_flowchart-v2-pointEnd)"/><path d="M1427.375,153L1404.042,154.292C1380.708,155.583,1334.042,158.167,1288.037,156.726C1242.032,155.285,1196.689,149.819,1174.018,147.086L1151.346,144.354" id="my-svg-L_REVIEW_DATA_0" class="edge-thickness-normal edge-pattern-dotted edge-thickness-normal edge-pattern-solid flowchart-link" style=";" data-edge="true" data-et="edge" data-id="L_REVIEW_DATA_0" data-points="W3sieCI6MTQyNy4zNzUsInkiOjE1M30seyJ4IjoxMjg3LjM3NSwieSI6MTYwLjc1fSx7IngiOjExNDcuMzc1LCJ5IjoxNDMuODc1fV0=" data-look="classic" marker-end="url(#my-svg_flowchart-v2-pointEnd)"/><path d="M2535,303.917L2541.667,306.139C2548.333,308.361,2561.667,312.806,2598.333,315.028C2635,317.25,2695,317.25,2771.667,317.25C2848.333,317.25,2941.667,317.25,3011,316.582C3080.334,315.914,3125.668,314.579,3148.335,313.911L3171.002,313.243" id="my-svg-L_QC_OUT_0" class="edge-thickness-normal edge-pattern-dotted edge-thickness-normal edge-pattern-solid flowchart-link" style=";" data-edge="true" data-et="edge" data-id="L_QC_OUT_0" data-points="W3sieCI6MjUzNSwieSI6MzAzLjkxNjY2NjY2NjY2Njd9LHsieCI6MjU3NSwieSI6MzE3LjI1fSx7IngiOjI3NTUsInkiOjMxNy4yNX0seyJ4IjozMDM1LCJ5IjozMTcuMjV9LHsieCI6MzE3NSwieSI6MzEzLjEyNX1d" data-look="classic" marker-end="url(#my-svg_flowchart-v2-pointEnd)"/><path d="M2895,178.875L2918.333,184.479C2941.667,190.083,2988.333,201.292,3034.37,214.72C3080.406,228.149,3125.812,243.798,3148.515,251.622L3171.218,259.447" id="my-svg-L_ACCEPT_OUT_2" class="edge-thickness-normal edge-pattern-dotted edge-thickness-normal edge-pattern-solid flowchart-link" style=";" data-edge="true" data-et="edge" data-id="L_ACCEPT_OUT_2" data-points="W3sieCI6Mjg5NSwieSI6MTc4Ljg3NX0seyJ4IjozMDM1LCJ5IjoyMTIuNX0seyJ4IjozMTc1LCJ5IjoyNjAuNzV9XQ==" data-look="classic" marker-end="url(#my-svg_flowchart-v2-pointEnd)"/><path d="M272.631,254.75L287.667,244.375C302.702,234,332.773,213.25,359.645,199.266C386.516,185.283,410.189,178.066,422.025,174.457L433.861,170.849" id="my-svg-L_QA_UI_0" class="edge-thickness-normal edge-pattern-dotted edge-thickness-normal edge-pattern-solid flowchart-link" style=";" data-edge="true" data-et="edge" data-id="L_QA_UI_0" data-points="W3sieCI6MjcyLjYzMTExMjk4NDgyMjk1LCJ5IjoyNTQuNzV9LHsieCI6MzYyLjg0Mzc1LCJ5IjoxOTIuNX0seyJ4Ijo0MzcuNjg3NSwieSI6MTY5LjY4MjE4MTgxODE4MTgyfV0=" data-look="classic" marker-end="url(#my-svg_flowchart-v2-pointEnd)"/><path d="M288,307.028L300.474,304.023C312.948,301.019,337.896,295.009,386.177,292.005C434.458,289,506.073,289,577.688,289C649.302,289,720.917,289,792.531,289C864.146,289,935.76,289,1018.234,289C1100.708,289,1194.042,289,1263.449,277.325C1332.856,265.651,1378.336,242.301,1401.076,230.627L1423.817,218.952" id="my-svg-L_QA_REVIEW_0" class="edge-thickness-normal edge-pattern-dotted edge-thickness-normal edge-pattern-solid flowchart-link" style=";" data-edge="true" data-et="edge" data-id="L_QA_REVIEW_0" data-points="W3sieCI6Mjg4LCJ5IjozMDcuMDI3ODE4MTgxODE4Mn0seyJ4IjozNjIuODQzNzUsInkiOjI4OX0seyJ4Ijo1NzcuNjg3NSwieSI6Mjg5fSx7IngiOjc5Mi41MzEyNSwieSI6Mjg5fSx7IngiOjEwMDcuMzc1LCJ5IjoyODl9LHsieCI6MTI4Ny4zNzUsInkiOjI4OX0seyJ4IjoxNDI3LjM3NSwieSI6MjE3LjEyNX1d" data-look="classic" marker-end="url(#my-svg_flowchart-v2-pointEnd)"/><path d="M288,330.813L300.474,329.927C312.948,329.042,337.896,327.271,386.177,326.385C434.458,325.5,506.073,325.5,577.688,325.5C649.302,325.5,720.917,325.5,792.531,325.5C864.146,325.5,935.76,325.5,1018.234,325.5C1100.708,325.5,1194.042,325.5,1287.375,325.5C1380.708,325.5,1474.042,325.5,1559.677,325.5C1645.313,325.5,1723.25,325.5,1777.214,321.123C1831.178,316.746,1861.169,307.991,1876.165,303.614L1891.16,299.237" id="my-svg-L_QA_TRAIN_0" class="edge-thickness-normal edge-pattern-dotted edge-thickness-normal edge-pattern-solid flowchart-link" style=";" data-edge="true" data-et="edge" data-id="L_QA_TRAIN_0" data-points="W3sieCI6Mjg4LCJ5IjozMzAuODEyNTQ1NDU0NTQ1NDR9LHsieCI6MzYyLjg0Mzc1LCJ5IjozMjUuNX0seyJ4Ijo1NzcuNjg3NSwieSI6MzI1LjV9LHsieCI6NzkyLjUzMTI1LCJ5IjozMjUuNX0seyJ4IjoxMDA3LjM3NSwieSI6MzI1LjV9LHsieCI6MTI4Ny4zNzUsInkiOjMyNS41fSx7IngiOjE1NjcuMzc1LCJ5IjozMjUuNX0seyJ4IjoxODAxLjE4NzUsInkiOjMyNS41fSx7IngiOjE4OTUsInkiOjI5OC4xMTYwNzg1ODg2MTI2NX1d" data-look="classic" marker-end="url(#my-svg_flowchart-v2-pointEnd)"/><path d="M288,388.319L300.474,392.558C312.948,396.796,337.896,405.273,386.177,409.512C434.458,413.75,506.073,413.75,577.688,413.75C649.302,413.75,720.917,413.75,792.531,413.75C864.146,413.75,935.76,413.75,1018.234,413.75C1100.708,413.75,1194.042,413.75,1287.375,413.75C1380.708,413.75,1474.042,413.75,1559.677,413.75C1645.313,413.75,1723.25,413.75,1801.188,413.75C1879.125,413.75,1957.063,413.75,2026.031,413.75C2095,413.75,2155,413.75,2215,413.75C2275,413.75,2335,413.75,2395,413.75C2455,413.75,2515,413.75,2575,413.75C2635,413.75,2695,413.75,2771.667,413.75C2848.333,413.75,2941.667,413.75,3011.042,405.254C3080.418,396.759,3125.836,379.768,3148.545,371.272L3171.254,362.777" id="my-svg-L_QA_OUT_0" class="edge-thickness-normal edge-pattern-dotted edge-thickness-normal edge-pattern-solid flowchart-link" style=";" data-edge="true" data-et="edge" data-id="L_QA_OUT_0" data-points="W3sieCI6Mjg4LCJ5IjozODguMzE5NDU0NTQ1NDU0NTZ9LHsieCI6MzYyLjg0Mzc1LCJ5Ijo0MTMuNzV9LHsieCI6NTc3LjY4NzUsInkiOjQxMy43NX0seyJ4Ijo3OTIuNTMxMjUsInkiOjQxMy43NX0seyJ4IjoxMDA3LjM3NSwieSI6NDEzLjc1fSx7IngiOjEyODcuMzc1LCJ5Ijo0MTMuNzV9LHsieCI6MTU2Ny4zNzUsInkiOjQxMy43NX0seyJ4IjoxODAxLjE4NzUsInkiOjQxMy43NX0seyJ4IjoyMDM1LCJ5Ijo0MTMuNzV9LHsieCI6MjIxNSwieSI6NDEzLjc1fSx7IngiOjIzOTUsInkiOjQxMy43NX0seyJ4IjoyNTc1LCJ5Ijo0MTMuNzV9LHsieCI6Mjc1NSwieSI6NDEzLjc1fSx7IngiOjMwMzUsInkiOjQxMy43NX0seyJ4IjozMTc1LCJ5IjozNjEuMzc1fV0=" data-look="classic" marker-end="url(#my-svg_flowchart-v2-pointEnd)"/></g><g class="edgeLabels"><g class="edgeLabel"><g class="label" data-id="L_U_UI_0" transform="translate(0, 0)"><foreignObject width="0" height="0"><div xmlns="http://www.w3.org/1999/xhtml" class="labelBkg" style="display: table-cell; white-space: nowrap; line-height: 1.5; max-width: 200px; text-align: center;"><span class="edgeLabel"></span></div></foreignObject></g></g><g class="edgeLabel"><g class="label" data-id="L_UI_DATA_0" transform="translate(0, 0)"><foreignObject width="0" height="0"><div xmlns="http://www.w3.org/1999/xhtml" class="labelBkg" style="display: table-cell; white-space: nowrap; line-height: 1.5; max-width: 200px; text-align: center;"><span class="edgeLabel"></span></div></foreignObject></g></g><g class="edgeLabel"><g class="label" data-id="L_DATA_REVIEW_0" transform="translate(0, 0)"><foreignObject width="0" height="0"><div xmlns="http://www.w3.org/1999/xhtml" class="labelBkg" style="display: table-cell; white-space: nowrap; line-height: 1.5; max-width: 200px; text-align: center;"><span class="edgeLabel"></span></div></foreignObject></g></g><g class="edgeLabel"><g class="label" data-id="L_REVIEW_TRAIN_0" transform="translate(0, 0)"><foreignObject width="0" height="0"><div xmlns="http://www.w3.org/1999/xhtml" class="labelBkg" style="display: table-cell; white-space: nowrap; line-height: 1.5; max-width: 200px; text-align: center;"><span class="edgeLabel"></span></div></foreignObject></g></g><g class="edgeLabel"><g class="label" data-id="L_TRAIN_QC_0" transform="translate(0, 0)"><foreignObject width="0" height="0"><div xmlns="http://www.w3.org/1999/xhtml" class="labelBkg" style="display: table-cell; white-space: nowrap; line-height: 1.5; max-width: 200px; text-align: center;"><span class="edgeLabel"></span></div></foreignObject></g></g><g class="edgeLabel"><g class="label" data-id="L_QC_ACCEPT_0" transform="translate(0, 0)"><foreignObject width="0" height="0"><div xmlns="http://www.w3.org/1999/xhtml" class="labelBkg" style="display: table-cell; white-space: nowrap; line-height: 1.5; max-width: 200px; text-align: center;"><span class="edgeLabel"></span></div></foreignObject></g></g><g class="edgeLabel"><g class="label" data-id="L_ACCEPT_OUT_0" transform="translate(0, 0)"><foreignObject width="0" height="0"><div xmlns="http://www.w3.org/1999/xhtml" class="labelBkg" style="display: table-cell; white-space: nowrap; line-height: 1.5; max-width: 200px; text-align: center;"><span class="edgeLabel"></span></div></foreignObject></g></g><g class="edgeLabel"><g class="label" data-id="L_OUT_USE_0" transform="translate(0, 0)"><foreignObject width="0" height="0"><div xmlns="http://www.w3.org/1999/xhtml" class="labelBkg" style="display: table-cell; white-space: nowrap; line-height: 1.5; max-width: 200px; text-align: center;"><span class="edgeLabel"></span></div></foreignObject></g></g><g class="edgeLabel" transform="translate(1286.97837, 160.70219)"><g class="label" data-id="L_REVIEW_DATA_0" transform="translate(-100, -33)"><foreignObject width="200" height="66"><div xmlns="http://www.w3.org/1999/xhtml" class="labelBkg" style="display: table; white-space: break-spaces; line-height: 1.5; max-width: 200px; text-align: center; width: 200px;"><span class="edgeLabel"><p>stale if WAVs change</p></span></div></foreignObject></g></g><g class="edgeLabel" transform="translate(2755, 317.25)"><g class="label" data-id="L_QC_OUT_0" transform="translate(-100, -33)"><foreignObject width="200" height="66"><div xmlns="http://www.w3.org/1999/xhtml" class="labelBkg" style="display: table; white-space: break-spaces; line-height: 1.5; max-width: 200px; text-align: center; width: 200px;"><span class="edgeLabel"><p>stale if model changes</p></span></div></foreignObject></g></g><g class="edgeLabel" transform="translate(3036.93807, 213.16794)"><g class="label" data-id="L_ACCEPT_OUT_2" transform="translate(-100, -33)"><foreignObject width="200" height="66"><div xmlns="http://www.w3.org/1999/xhtml" class="labelBkg" style="display: table; white-space: break-spaces; line-height: 1.5; max-width: 200px; text-align: center; width: 200px;"><span class="edgeLabel"><p>finalizes current hash</p></span></div></foreignObject></g></g><g class="edgeLabel" transform="translate(349.93773, 201.40562)"><g class="label" data-id="L_QA_UI_0" transform="translate(-34.84375, -16.5)"><foreignObject width="69.6875" height="33"><div xmlns="http://www.w3.org/1999/xhtml" class="labelBkg" style="display: table-cell; white-space: nowrap; line-height: 1.5; max-width: 200px; text-align: center;"><span class="edgeLabel"><p>verifies</p></span></div></foreignObject></g></g><g class="edgeLabel" transform="translate(792.53125, 289)"><g class="label" data-id="L_QA_REVIEW_0" transform="translate(-34.84375, -16.5)"><foreignObject width="69.6875" height="33"><div xmlns="http://www.w3.org/1999/xhtml" class="labelBkg" style="display: table-cell; white-space: nowrap; line-height: 1.5; max-width: 200px; text-align: center;"><span class="edgeLabel"><p>verifies</p></span></div></foreignObject></g></g><g class="edgeLabel" transform="translate(1007.375, 325.5)"><g class="label" data-id="L_QA_TRAIN_0" transform="translate(-34.84375, -16.5)"><foreignObject width="69.6875" height="33"><div xmlns="http://www.w3.org/1999/xhtml" class="labelBkg" style="display: table-cell; white-space: nowrap; line-height: 1.5; max-width: 200px; text-align: center;"><span class="edgeLabel"><p>verifies</p></span></div></foreignObject></g></g><g class="edgeLabel" transform="translate(1801.1875, 413.75)"><g class="label" data-id="L_QA_OUT_0" transform="translate(-53.8125, -16.5)"><foreignObject width="107.625" height="33"><div xmlns="http://www.w3.org/1999/xhtml" class="labelBkg" style="display: table-cell; white-space: nowrap; line-height: 1.5; max-width: 200px; text-align: center;"><span class="edgeLabel"><p>documents</p></span></div></foreignObject></g></g></g><g class="nodes"><g class="node default user" id="my-svg-flowchart-U-0" data-look="classic" transform="translate(148, 108.75)"><g class="basic label-container outer-path"><path d="M-13.3515625 -26.5 C-4.500742461549018 -26.5, 4.350077576901963 -26.5, 13.3515625 -26.5 C13.3515625 -26.5, 13.351562499999998 -26.5, 13.351562499999998 -26.5 C14.017525737459229 -26.478643855193486, 14.68348897491846 -26.457287710386975, 15.04942332948889 -26.44555290788391 C15.4083104841632 -26.410931495697433, 15.767197638837509 -26.376310083510955, 16.740307284639407 -26.282435366316022 C17.31148568197564 -26.19009167258933, 17.882664079311873 -26.097747978862632, 18.41726616058636 -26.011317660263234 C18.818352680319784 -25.919772279468223, 19.219439200053202 -25.828226898673215, 20.07340897360194 -25.63331387053428 C20.689051581835642 -25.45059437598451, 21.304694190069345 -25.267874881434746, 21.701930277625948 -25.14997729578272 C22.153749167157834 -24.983703767866956, 22.605568056689723 -24.81743023995119, 23.296138129303415 -24.563294069669578 C23.90674539659401 -24.29299634546106, 24.51735266388461 -24.02269862125254, 24.84948158661529 -23.87567499941411 C25.153615925948316 -23.71700830939141, 25.457750265281344 -23.55834161936871, 26.355577628104346 -23.089945659269823 C26.71015421148995 -22.874999250698174, 27.064730794875555 -22.66005284212653, 27.80823738207954 -22.209334779633778 C28.24074482984031 -21.907636307021516, 28.67325227760108 -21.605937834409254, 29.201491558017224 -21.23746097950085 C29.704251828325553 -20.83652304294263, 30.207012098633882 -20.435585106384416, 30.529614975656386 -20.178317896782065 C30.92016373244358 -19.82363184922179, 31.31071248923077 -19.46894580166152, 31.787150090992387 -19.036257777589782 C32.15309473303257 -18.65838989006943, 32.51903937507275 -18.28052200254908, 32.96892942249586 -17.8159735919249 C33.325808702463476 -17.39676288266864, 33.68268798243109 -16.977552173412377, 34.07009678540279 -16.52247974925644 C34.38373861461966 -16.102228271464288, 34.69738044383652 -15.681976793672135, 35.08612724681932 -15.161091493237501 C35.27985899937794 -14.863467497047823, 35.473590751936555 -14.565843500858147, 36.012845719641675 -13.737403060228917 C36.34413923182375 -13.149157882243804, 36.67543274400583 -12.56091270425869, 36.846444118884506 -12.257264691382135 C37.0037643707336 -11.930585822303346, 37.161084622582685 -11.60390695322456, 37.58349700991903 -10.726758592743442 C37.79244778317706 -10.210646143007729, 38.00139855643509 -9.694533693272016, 38.220975684318645 -9.152173942164664 C38.40366940923453 -8.601929551010095, 38.586363134150425 -8.051685159855525, 38.75626060547151 -7.539981045722367 C38.883256518936584 -7.055690587302977, 39.01025243240166 -6.571400128883587, 39.18715217281833 -5.896804749842334 C39.300440378733605 -5.315093755938182, 39.41372858464888 -4.73338276203403, 39.51187976048293 -4.229397218384559 C39.57595536114186 -3.732439512832404, 39.64003096180079 -3.235481807280249, 39.72910899315375 -2.5446101865535713 C39.758832535458616 -2.0816420227438277, 39.78855607776348 -1.6186738589340846, 39.83794722931823 -0.8493668056488619 C39.83794722931823 -0.18194251354486057, 39.83794722931823 0.48548177855914076, 39.83794722931823 0.8493668056488555 C39.79933679978427 1.4507554114180046, 39.76072637025032 2.052144017187154, 39.72910899315375 2.5446101865535535 C39.68303820313251 2.901926136251781, 39.63696741311127 3.2592420859500084, 39.51187976048293 4.229397218384541 C39.38535190168351 4.8790910316471425, 39.258824042884086 5.528784844909745, 39.18715217281833 5.896804749842328 C39.03260915007037 6.486144274950037, 38.87806612732241 7.0754838000577465, 38.75626060547151 7.5399810457223495 C38.62551770180598 7.9337578405101405, 38.49477479814045 8.327534635297932, 38.22097568431865 9.152173942164648 C38.008870232538015 9.676078508842759, 37.79676478075738 10.19998307552087, 37.58349700991903 10.726758592743435 C37.380602273789314 11.148073853568688, 37.1777075376596 11.569389114393939, 36.846444118884506 12.257264691382128 C36.626383869775765 12.648003947191265, 36.40632362066702 13.0387432030004, 36.012845719641675 13.73740306022891 C35.700558514869556 14.217160067614996, 35.38827131009744 14.696917075001082, 35.08612724681934 15.161091493237487 C34.82694360555041 15.508373960422384, 34.56775996428148 15.855656427607283, 34.0700967854028 16.522479749256433 C33.63807610028945 17.029955828663944, 33.20605541517611 17.537431908071458, 32.96892942249587 17.815973591924887 C32.58369496596308 18.213759796632075, 32.1984605094303 18.61154600133926, 31.787150090992395 19.036257777589775 C31.45648859320578 19.33655580105577, 31.125827095419165 19.63685382452176, 30.52961497565641 20.178317896782048 C30.110339310079823 20.512679082685338, 29.691063644503235 20.847040268588625, 29.20149155801723 21.23746097950085 C28.648722622425215 21.623048659988285, 28.095953686833198 22.00863634047572, 27.808237382079554 22.20933477963377 C27.36587122139309 22.47749974587402, 26.923505060706628 22.74566471211427, 26.35557762810435 23.08994565926982 C26.008399006096028 23.27106852399304, 25.66122038408771 23.452191388716262, 24.849481586615294 23.875674999414105 C24.318455902870237 24.110744317290813, 23.787430219125184 24.345813635167524, 23.296138129303426 24.563294069669574 C22.67179644915228 24.79305757931642, 22.04745476900113 25.022821088963266, 21.701930277625966 25.149977295782712 C21.23032441938411 25.28994743899923, 20.758718561142253 25.429917582215747, 20.07340897360197 25.633313870534273 C19.629480190392066 25.734637718395895, 19.18555140718216 25.835961566257517, 18.417266160586372 26.01131766026323 C18.03292911448007 26.073454293299392, 17.648592068373762 26.13559092633555, 16.740307284639425 26.28243536631602 C16.208815979449568 26.33370769331587, 15.677324674259713 26.38498002031572, 15.04942332948889 26.44555290788391 C14.60865533162153 26.459687479672656, 14.16788733375417 26.4738220514614, 13.351562500000005 26.5 C13.351562500000004 26.5, 13.351562500000002 26.5, 13.3515625 26.5 C5.823623794552853 26.5, -1.7043149108942934 26.5, -13.351562499999995 26.5 C-13.750167454872637 26.487217514934713, -14.14877240974528 26.474435029869422, -15.049423329488882 26.44555290788391 C-15.648132822030552 26.38779612319193, -16.246842314572223 26.330039338499944, -16.740307284639414 26.28243536631602 C-17.105650608923888 26.2233694909255, -17.470993933208362 26.164303615534983, -18.417266160586365 26.01131766026323 C-18.897168630109633 25.901783053250828, -19.377071099632897 25.792248446238425, -20.073408973601936 25.63331387053428 C-20.5800639219658 25.48294134134598, -21.086718870329666 25.33256881215768, -21.701930277625934 25.149977295782726 C-22.117400104614337 24.997080558890012, -22.53286993160274 24.8441838219973, -23.296138129303415 24.563294069669578 C-23.68120310213268 24.392837228744636, -24.066268074961947 24.222380387819697, -24.849481586615283 23.87567499941411 C-25.398858094948782 23.589065626908972, -25.94823460328228 23.302456254403836, -26.355577628104342 23.089945659269826 C-26.879141672859532 22.772558058535385, -27.402705717614722 22.45517045780094, -27.808237382079525 22.20933477963379 C-28.199691336281845 21.93627344695081, -28.591145290484164 21.663212114267832, -29.20149155801722 21.237460979500852 C-29.716078886490195 20.82709127878757, -30.230666214963165 20.416721578074284, -30.529614975656386 20.17831789678207 C-30.791545074951074 19.940439910893293, -31.05347517424576 19.702561925004513, -31.787150090992377 19.036257777589793 C-32.16477058623529 18.646333613032244, -32.54239108147821 18.256409448474695, -32.96892942249586 17.815973591924894 C-33.36127566624369 17.35510136888498, -33.753621909991516 16.89422914584507, -34.07009678540278 16.522479749256444 C-34.278600441008166 16.243103845819025, -34.48710409661354 15.963727942381606, -35.08612724681932 15.161091493237505 C-35.44425655928617 14.610908698102795, -35.80238587175302 14.060725902968088, -36.01284571964166 13.737403060228928 C-36.33588902981275 13.163806951337877, -36.658932339983835 12.590210842446826, -36.8464441188845 12.257264691382137 C-37.069236776090214 11.794630971695264, -37.29202943329593 11.331997252008394, -37.58349700991903 10.726758592743446 C-37.80949442162004 10.16854061647924, -38.035491833321046 9.610322640215035, -38.220975684318645 9.152173942164668 C-38.34973507919385 8.764371159824126, -38.47849447406906 8.376568377483586, -38.75626060547151 7.53998104572236 C-38.8927327648332 7.019553554668225, -39.029204924194886 6.49912606361409, -39.18715217281832 5.896804749842338 C-39.26107085625887 5.517247933094425, -39.33498953969941 5.137691116346511, -39.51187976048293 4.2293972183845625 C-39.56955032949202 3.7821156734920027, -39.62722089850111 3.334834128599443, -39.72910899315375 2.5446101865535864 C-39.76774055329212 1.9428924545643516, -39.8063721134305 1.3411747225751165, -39.83794722931823 0.8493668056488652 C-39.83794722931823 0.22967860759238012, -39.83794722931823 -0.390009590464105, -39.83794722931823 -0.8493668056488524 C-39.81208147254614 -1.2522468458372937, -39.78621571577404 -1.655126886025735, -39.72910899315375 -2.54461018655355 C-39.685076253527754 -2.8861194198448366, -39.641043513901764 -3.227628653136123, -39.51187976048293 -4.22939721838455 C-39.44213660264632 -4.587513593653886, -39.37239344480972 -4.94562996892322, -39.18715217281833 -5.8968047498423255 C-39.033285835600566 -6.483563779746042, -38.8794194983828 -7.070322809649758, -38.75626060547151 -7.539981045722347 C-38.60602037898702 -7.9924806703643325, -38.45578015250253 -8.444980295006319, -38.22097568431866 -9.152173942164634 C-37.99497979461645 -9.71038815906237, -37.76898390491424 -10.268602375960107, -37.58349700991903 -10.726758592743431 C-37.2990085057026 -11.317505058827697, -37.01452000148618 -11.908251524911963, -36.846444118884506 -12.257264691382126 C-36.528258100316066 -12.822236187178575, -36.210072081747626 -13.387207682975024, -36.012845719641675 -13.73740306022892 C-35.73048859945598 -14.171179420337198, -35.448131479270295 -14.604955780445477, -35.08612724681933 -15.161091493237496 C-34.710595195038536 -15.664270230950045, -34.33506314325774 -16.167448968662594, -34.0700967854028 -16.522479749256433 C-33.65553102542519 -17.009452280386135, -33.240965265447585 -17.496424811515837, -32.968929422495876 -17.815973591924887 C-32.54534256072374 -18.25336180383274, -32.121755698951596 -18.690750015740587, -31.787150090992405 -19.036257777589768 C-31.352322704630208 -19.431156504981722, -30.91749531826801 -19.826055232373676, -30.529614975656415 -20.178317896782044 C-30.017750792779864 -20.58651596134813, -29.505886609903317 -20.994714025914213, -29.20149155801723 -21.237460979500845 C-28.699087766779574 -21.587916115558638, -28.19668397554192 -21.938371251616434, -27.808237382079554 -22.209334779633767 C-27.501994322346857 -22.39498112212771, -27.195751262614163 -22.58062746462165, -26.355577628104356 -23.089945659269816 C-25.81904450523662 -23.369854645804047, -25.282511382368885 -23.64976363233828, -24.849481586615298 -23.875674999414105 C-24.360785921955312 -24.092006073517254, -23.872090257295323 -24.308337147620406, -23.29613812930343 -24.56329406966957 C-22.677614670690573 -24.790916420007274, -22.059091212077718 -25.018538770344982, -21.70193027762597 -25.149977295782712 C-21.292103550915865 -25.271611717045886, -20.882276824205764 -25.393246138309056, -20.07340897360197 -25.633313870534273 C-19.735184450822317 -25.710511410737453, -19.396959928042662 -25.78770895094063, -18.417266160586376 -26.011317660263227 C-18.04530297129868 -26.07145378408965, -17.67333978201098 -26.13158990791607, -16.740307284639428 -26.28243536631602 C-16.239342088308415 -26.330762876307276, -15.738376891977403 -26.37909038629853, -15.049423329488894 -26.44555290788391 C-14.591450812030534 -26.460239195129372, -14.133478294572171 -26.474925482374836, -13.351562500000009 -26.5 C-13.351562500000005 -26.5, -13.351562500000002 -26.5, -13.3515625 -26.5" stroke="none" stroke-width="0" fill="#111827" style="fill:#111827 !important;stroke:#111827 !important;stroke-width:2px !important"/><path d="M-13.3515625 -26.5 C-3.786160082099995 -26.5, 5.77924233580001 -26.5, 13.3515625 -26.5 M-13.3515625 -26.5 C-6.47551472745389 -26.5, 0.4005330450922209 -26.5, 13.3515625 -26.5 M13.3515625 -26.5 C13.3515625 -26.5, 13.351562499999998 -26.5, 13.351562499999998 -26.5 M13.3515625 -26.5 C13.3515625 -26.5, 13.351562499999998 -26.5, 13.351562499999998 -26.5 M13.351562499999998 -26.5 C13.704560418079579 -26.488680043835952, 14.057558336159161 -26.477360087671908, 15.04942332948889 -26.44555290788391 M13.351562499999998 -26.5 C13.973133237582326 -26.48006743625978, 14.594703975164656 -26.46013487251956, 15.04942332948889 -26.44555290788391 M15.04942332948889 -26.44555290788391 C15.447852748838875 -26.407116900980704, 15.84628216818886 -26.368680894077492, 16.740307284639407 -26.282435366316022 M15.04942332948889 -26.44555290788391 C15.545634200309191 -26.39768404195676, 16.04184507112949 -26.34981517602961, 16.740307284639407 -26.282435366316022 M16.740307284639407 -26.282435366316022 C17.08548351087368 -26.22662995094008, 17.43065973710795 -26.170824535564137, 18.41726616058636 -26.011317660263234 M16.740307284639407 -26.282435366316022 C17.35086691780466 -26.183724819786537, 17.961426550969914 -26.085014273257052, 18.41726616058636 -26.011317660263234 M18.41726616058636 -26.011317660263234 C18.799296327516252 -25.924121767641306, 19.181326494446147 -25.83692587501938, 20.07340897360194 -25.63331387053428 M18.41726616058636 -26.011317660263234 C18.92226262327624 -25.89605551306416, 19.427259085966117 -25.780793365865087, 20.07340897360194 -25.63331387053428 M20.07340897360194 -25.63331387053428 C20.48327495148999 -25.51166779972753, 20.893140929378042 -25.390021728920775, 21.701930277625948 -25.14997729578272 M20.07340897360194 -25.63331387053428 C20.71529434958988 -25.442805660266153, 21.357179725577815 -25.25229744999803, 21.701930277625948 -25.14997729578272 M21.701930277625948 -25.14997729578272 C22.228188483193758 -24.95630941145624, 22.75444668876157 -24.762641527129762, 23.296138129303415 -24.563294069669578 M21.701930277625948 -25.14997729578272 C22.150776535135236 -24.98479772392998, 22.599622792644528 -24.81961815207724, 23.296138129303415 -24.563294069669578 M23.296138129303415 -24.563294069669578 C23.69416223239586 -24.387100606196068, 24.092186335488307 -24.21090714272256, 24.84948158661529 -23.87567499941411 M23.296138129303415 -24.563294069669578 C23.71912344264145 -24.37605101886834, 24.142108755979486 -24.188807968067103, 24.84948158661529 -23.87567499941411 M24.84948158661529 -23.87567499941411 C25.29331259475018 -23.644128646757466, 25.737143602885066 -23.412582294100822, 26.355577628104346 -23.089945659269823 M24.84948158661529 -23.87567499941411 C25.175664452268528 -23.705505607332913, 25.50184731792176 -23.535336215251714, 26.355577628104346 -23.089945659269823 M26.355577628104346 -23.089945659269823 C26.74489770860182 -22.85393753857351, 27.13421778909929 -22.617929417877196, 27.80823738207954 -22.209334779633778 M26.355577628104346 -23.089945659269823 C26.832627585385502 -22.80075517170926, 27.30967754266666 -22.51156468414869, 27.80823738207954 -22.209334779633778 M27.80823738207954 -22.209334779633778 C28.27481302552071 -21.88387180850329, 28.74138866896188 -21.558408837372806, 29.201491558017224 -21.23746097950085 M27.80823738207954 -22.209334779633778 C28.088889266416086 -22.013564174344864, 28.369541150752628 -21.817793569055954, 29.201491558017224 -21.23746097950085 M29.201491558017224 -21.23746097950085 C29.59344403637169 -20.924889308306657, 29.985396514726155 -20.612317637112465, 30.529614975656386 -20.178317896782065 M29.201491558017224 -21.23746097950085 C29.66479777844587 -20.86798659780532, 30.128103998874515 -20.498512216109788, 30.529614975656386 -20.178317896782065 M30.529614975656386 -20.178317896782065 C30.9019027921635 -19.840215952026156, 31.274190608670615 -19.502114007270247, 31.787150090992387 -19.036257777589782 M30.529614975656386 -20.178317896782065 C30.986437474743802 -19.76344378997186, 31.443259973831218 -19.348569683161656, 31.787150090992387 -19.036257777589782 M31.787150090992387 -19.036257777589782 C32.16614105999637 -18.644918486355945, 32.54513202900035 -18.25357919512211, 32.96892942249586 -17.8159735919249 M31.787150090992387 -19.036257777589782 C32.18167355554505 -18.628879909460327, 32.57619702009772 -18.22150204133087, 32.96892942249586 -17.8159735919249 M32.96892942249586 -17.8159735919249 C33.19425517080307 -17.551293146564962, 33.419580919110274 -17.286612701205023, 34.07009678540279 -16.52247974925644 M32.96892942249586 -17.8159735919249 C33.20680253970908 -17.536554293082446, 33.4446756569223 -17.25713499423999, 34.07009678540279 -16.52247974925644 M34.07009678540279 -16.52247974925644 C34.46314324683119 -15.995833298211643, 34.85618970825959 -15.469186847166846, 35.08612724681932 -15.161091493237501 M34.07009678540279 -16.52247974925644 C34.441661902021124 -16.024616343266363, 34.81322701863945 -15.526752937276287, 35.08612724681932 -15.161091493237501 M35.08612724681932 -15.161091493237501 C35.44149593166034 -14.615149763468388, 35.79686461650135 -14.069208033699274, 36.012845719641675 -13.737403060228917 M35.08612724681932 -15.161091493237501 C35.37095059777441 -14.723526340391743, 35.6557739487295 -14.285961187545983, 36.012845719641675 -13.737403060228917 M36.012845719641675 -13.737403060228917 C36.21634748290001 -13.376065072775681, 36.41984924615836 -13.014727085322447, 36.846444118884506 -12.257264691382135 M36.012845719641675 -13.737403060228917 C36.284288595430404 -13.255428747694314, 36.55573147121913 -12.773454435159712, 36.846444118884506 -12.257264691382135 M36.846444118884506 -12.257264691382135 C37.04457762037797 -11.845836236153149, 37.242711121871444 -11.434407780924163, 37.58349700991903 -10.726758592743442 M36.846444118884506 -12.257264691382135 C37.129943411415674 -11.66857234452804, 37.41344270394684 -11.079879997673942, 37.58349700991903 -10.726758592743442 M37.58349700991903 -10.726758592743442 C37.7542579774053 -10.30497570161364, 37.92501894489157 -9.883192810483838, 38.220975684318645 -9.152173942164664 M37.58349700991903 -10.726758592743442 C37.730966847634015 -10.36250524245208, 37.878436685348994 -9.998251892160717, 38.220975684318645 -9.152173942164664 M38.220975684318645 -9.152173942164664 C38.33825015741221 -8.79896191435665, 38.45552463050577 -8.445749886548636, 38.75626060547151 -7.539981045722367 M38.220975684318645 -9.152173942164664 C38.33964482295506 -8.794761403951357, 38.45831396159148 -8.43734886573805, 38.75626060547151 -7.539981045722367 M38.75626060547151 -7.539981045722367 C38.911326546098856 -6.9486474081065, 39.0663924867262 -6.357313770490632, 39.18715217281833 -5.896804749842334 M38.75626060547151 -7.539981045722367 C38.85842052273914 -7.15040100479268, 38.960580440006765 -6.760820963862991, 39.18715217281833 -5.896804749842334 M39.18715217281833 -5.896804749842334 C39.291811023525796 -5.359403671115408, 39.39646987423327 -4.822002592388483, 39.51187976048293 -4.229397218384559 M39.18715217281833 -5.896804749842334 C39.29660929209592 -5.334765576122242, 39.406066411373516 -4.772726402402151, 39.51187976048293 -4.229397218384559 M39.51187976048293 -4.229397218384559 C39.5702184040772 -3.7769342189355735, 39.62855704767148 -3.3244712194865875, 39.72910899315375 -2.5446101865535713 M39.51187976048293 -4.229397218384559 C39.582417474585526 -3.682320637051938, 39.652955188688125 -3.135244055719317, 39.72910899315375 -2.5446101865535713 M39.72910899315375 -2.5446101865535713 C39.76017769500585 -2.0606900770024152, 39.79124639685794 -1.5767699674512587, 39.83794722931823 -0.8493668056488619 M39.72910899315375 -2.5446101865535713 C39.7652069695942 -1.9823550657314604, 39.80130494603465 -1.4200999449093494, 39.83794722931823 -0.8493668056488619 M39.83794722931823 -0.8493668056488619 C39.83794722931823 -0.2288964882381107, 39.83794722931823 0.3915738291726405, 39.83794722931823 0.8493668056488555 M39.83794722931823 -0.8493668056488619 C39.83794722931823 -0.416458959855197, 39.83794722931823 0.01644888593846794, 39.83794722931823 0.8493668056488555 M39.83794722931823 0.8493668056488555 C39.79565673333023 1.5080754169358204, 39.75336623734224 2.1667840282227857, 39.72910899315375 2.5446101865535535 M39.83794722931823 0.8493668056488555 C39.80277962255933 1.3971306676999695, 39.76761201580043 1.9448945297510836, 39.72910899315375 2.5446101865535535 M39.72910899315375 2.5446101865535535 C39.674646890786654 2.9670074977542105, 39.62018478841956 3.389404808954868, 39.51187976048293 4.229397218384541 M39.72910899315375 2.5446101865535535 C39.66875143301476 3.0127315040431757, 39.60839387287577 3.480852821532798, 39.51187976048293 4.229397218384541 M39.51187976048293 4.229397218384541 C39.39894157419461 4.809310935480946, 39.28600338790629 5.389224652577351, 39.18715217281833 5.896804749842328 M39.51187976048293 4.229397218384541 C39.40883894805761 4.758490012505156, 39.30579813563229 5.287582806625771, 39.18715217281833 5.896804749842328 M39.18715217281833 5.896804749842328 C39.09295934360591 6.256002831059687, 38.998766514393495 6.615200912277047, 38.75626060547151 7.5399810457223495 M39.18715217281833 5.896804749842328 C39.06770912413695 6.352292861409209, 38.94826607545556 6.807780972976089, 38.75626060547151 7.5399810457223495 M38.75626060547151 7.5399810457223495 C38.627019840102065 7.929233639295574, 38.49777907473261 8.318486232868798, 38.22097568431865 9.152173942164648 M38.75626060547151 7.5399810457223495 C38.56048551220579 8.129624434113628, 38.364710418940064 8.719267822504907, 38.22097568431865 9.152173942164648 M38.22097568431865 9.152173942164648 C37.97880719418536 9.750334794803122, 37.73663870405207 10.348495647441595, 37.58349700991903 10.726758592743435 M38.22097568431865 9.152173942164648 C37.98727090355353 9.729429269029046, 37.75356612278841 10.306684595893444, 37.58349700991903 10.726758592743435 M37.58349700991903 10.726758592743435 C37.329326444571215 11.254549210067063, 37.075155879223395 11.782339827390691, 36.846444118884506 12.257264691382128 M37.58349700991903 10.726758592743435 C37.37761405798773 11.154278947618259, 37.17173110605643 11.581799302493083, 36.846444118884506 12.257264691382128 M36.846444118884506 12.257264691382128 C36.519432129926976 12.837907591330808, 36.19242014096945 13.41855049127949, 36.012845719641675 13.73740306022891 M36.846444118884506 12.257264691382128 C36.52788532655331 12.822898084741782, 36.209326534222114 13.388531478101438, 36.012845719641675 13.73740306022891 M36.012845719641675 13.73740306022891 C35.72276570051995 14.183043866991673, 35.43268568139823 14.628684673754433, 35.08612724681934 15.161091493237487 M36.012845719641675 13.73740306022891 C35.80997567275505 14.049065930482024, 35.60710562586843 14.360728800735137, 35.08612724681934 15.161091493237487 M35.08612724681934 15.161091493237487 C34.78882796464246 15.559445446832719, 34.49152868246558 15.957799400427952, 34.0700967854028 16.522479749256433 M35.08612724681934 15.161091493237487 C34.745634610551086 15.617320606319646, 34.405141974282834 16.073549719401807, 34.0700967854028 16.522479749256433 M34.0700967854028 16.522479749256433 C33.70492051786231 16.951436572227756, 33.33974425032183 17.38039339519908, 32.96892942249587 17.815973591924887 M34.0700967854028 16.522479749256433 C33.7244569028069 16.928488022820048, 33.378817020211 17.334496296383662, 32.96892942249587 17.815973591924887 M32.96892942249587 17.815973591924887 C32.63986187475801 18.15576285191234, 32.310794327020155 18.495552111899794, 31.787150090992395 19.036257777589775 M32.96892942249587 17.815973591924887 C32.65912328591424 18.13587386350227, 32.349317149332606 18.455774135079654, 31.787150090992395 19.036257777589775 M31.787150090992395 19.036257777589775 C31.288836355285948 19.48881312769942, 30.7905226195795 19.941368477809068, 30.52961497565641 20.178317896782048 M31.787150090992395 19.036257777589775 C31.497855194348375 19.298987748398353, 31.208560297704356 19.561717719206932, 30.52961497565641 20.178317896782048 M30.52961497565641 20.178317896782048 C30.162093883348035 20.471406187750972, 29.79457279103966 20.764494478719897, 29.20149155801723 21.23746097950085 M30.52961497565641 20.178317896782048 C30.179724397434054 20.457346321935056, 29.829833819211693 20.736374747088067, 29.20149155801723 21.23746097950085 M29.20149155801723 21.23746097950085 C28.808734978003084 21.511430967560397, 28.415978397988933 21.785400955619945, 27.808237382079554 22.20933477963377 M29.20149155801723 21.23746097950085 C28.727795762425373 21.567890660545235, 28.254099966833518 21.89832034158962, 27.808237382079554 22.20933477963377 M27.808237382079554 22.20933477963377 C27.266751570564622 22.53758666069796, 26.72526575904969 22.865838541762148, 26.35557762810435 23.08994565926982 M27.808237382079554 22.20933477963377 C27.414826398692593 22.447822829702506, 27.021415415305633 22.68631087977124, 26.35557762810435 23.08994565926982 M26.35557762810435 23.08994565926982 C25.867579088374242 23.344534184869033, 25.37958054864413 23.59912271046825, 24.849481586615294 23.875674999414105 M26.35557762810435 23.08994565926982 C25.811497648952145 23.373791835893666, 25.26741766979994 23.657638012517513, 24.849481586615294 23.875674999414105 M24.849481586615294 23.875674999414105 C24.435777186712713 24.058809665145983, 24.022072786810135 24.24194433087786, 23.296138129303426 24.563294069669574 M24.849481586615294 23.875674999414105 C24.365360349217433 24.089981110263878, 23.881239111819575 24.304287221113647, 23.296138129303426 24.563294069669574 M23.296138129303426 24.563294069669574 C22.723404851563718 24.774065210166167, 22.15067157382401 24.984836350662764, 21.701930277625966 25.149977295782712 M23.296138129303426 24.563294069669574 C22.883643084255137 24.71509605930974, 22.47114803920685 24.866898048949906, 21.701930277625966 25.149977295782712 M21.701930277625966 25.149977295782712 C21.135927484833502 25.31796395367423, 20.569924692041038 25.485950611565748, 20.07340897360197 25.633313870534273 M21.701930277625966 25.149977295782712 C21.36172760603054 25.25094766295197, 21.021524934435117 25.35191803012123, 20.07340897360197 25.633313870534273 M20.07340897360197 25.633313870534273 C19.701268257061564 25.718252560639495, 19.32912754052116 25.803191250744717, 18.417266160586372 26.01131766026323 M20.07340897360197 25.633313870534273 C19.429161997268913 25.780359038777878, 18.784915020935856 25.927404207021485, 18.417266160586372 26.01131766026323 M18.417266160586372 26.01131766026323 C17.902293457922458 26.094574453156977, 17.38732075525854 26.177831246050726, 16.740307284639425 26.28243536631602 M18.417266160586372 26.01131766026323 C17.893824324480935 26.09594367697269, 17.3703824883755 26.180569693682152, 16.740307284639425 26.28243536631602 M16.740307284639425 26.28243536631602 C16.396274102191096 26.315623833666372, 16.052240919742765 26.348812301016725, 15.04942332948889 26.44555290788391 M16.740307284639425 26.28243536631602 C16.277206956332865 26.327110098028122, 15.814106628026304 26.371784829740225, 15.04942332948889 26.44555290788391 M15.04942332948889 26.44555290788391 C14.565936058341677 26.46105740361872, 14.082448787194464 26.476561899353527, 13.351562500000005 26.5 M15.04942332948889 26.44555290788391 C14.669823843551262 26.457725924552356, 14.290224357613631 26.469898941220798, 13.351562500000005 26.5 M13.351562500000005 26.5 C13.351562500000004 26.5, 13.351562500000002 26.5, 13.3515625 26.5 M13.351562500000005 26.5 C13.351562500000004 26.5, 13.351562500000002 26.5, 13.3515625 26.5 M13.3515625 26.5 C4.029887068414489 26.5, -5.2917883631710225 26.5, -13.351562499999995 26.5 M13.3515625 26.5 C5.431462363816226 26.5, -2.4886377723675484 26.5, -13.351562499999995 26.5 M-13.351562499999995 26.5 C-13.870442738622803 26.48336052068648, -14.38932297724561 26.466721041372963, -15.049423329488882 26.44555290788391 M-13.351562499999995 26.5 C-13.89130767022091 26.482691422941254, -14.431052840441826 26.465382845882512, -15.049423329488882 26.44555290788391 M-15.049423329488882 26.44555290788391 C-15.532268211739607 26.398973442799115, -16.015113093990333 26.352393977714318, -16.740307284639414 26.28243536631602 M-15.049423329488882 26.44555290788391 C-15.394293972062647 26.41228365176245, -15.739164614636412 26.37901439564099, -16.740307284639414 26.28243536631602 M-16.740307284639414 26.28243536631602 C-17.275902962804018 26.195844410676884, -17.81149864096862 26.109253455037752, -18.417266160586365 26.01131766026323 M-16.740307284639414 26.28243536631602 C-17.104494592651374 26.2235563866714, -17.468681900663334 26.164677407026783, -18.417266160586365 26.01131766026323 M-18.417266160586365 26.01131766026323 C-18.824268948556217 25.918421929850513, -19.23127173652607 25.825526199437796, -20.073408973601936 25.63331387053428 M-18.417266160586365 26.01131766026323 C-18.97780692171936 25.883377889404937, -19.53834768285235 25.755438118546643, -20.073408973601936 25.63331387053428 M-20.073408973601936 25.63331387053428 C-20.56921025464198 25.486162652835628, -21.065011535682025 25.339011435136978, -21.701930277625934 25.149977295782726 M-20.073408973601936 25.63331387053428 C-20.57979367255022 25.483021549953957, -21.0861783714985 25.332729229373633, -21.701930277625934 25.149977295782726 M-21.701930277625934 25.149977295782726 C-22.232654201710695 24.95466598576136, -22.763378125795455 24.759354675739992, -23.296138129303415 24.563294069669578 M-21.701930277625934 25.149977295782726 C-22.227466197042535 24.95657521943663, -22.75300211645914 24.763173143090537, -23.296138129303415 24.563294069669578 M-23.296138129303415 24.563294069669578 C-23.73546564824401 24.36881680922239, -24.174793167184603 24.174339548775205, -24.849481586615283 23.87567499941411 M-23.296138129303415 24.563294069669578 C-23.91564809046626 24.289055386972844, -24.535158051629104 24.01481670427611, -24.849481586615283 23.87567499941411 M-24.849481586615283 23.87567499941411 C-25.34124137839078 23.61912423103201, -25.83300117016628 23.362573462649916, -26.355577628104342 23.089945659269826 M-24.849481586615283 23.87567499941411 C-25.438961600684628 23.5681436536541, -26.028441614753977 23.260612307894096, -26.355577628104342 23.089945659269826 M-26.355577628104342 23.089945659269826 C-26.894051694271386 22.763519515934505, -27.43252576043843 22.437093372599186, -27.808237382079525 22.20933477963379 M-26.355577628104342 23.089945659269826 C-26.906259771879824 22.75611890754564, -27.45694191565531 22.42229215582146, -27.808237382079525 22.20933477963379 M-27.808237382079525 22.20933477963379 C-28.270711535581228 21.886732830334438, -28.733185689082926 21.564130881035087, -29.20149155801722 21.237460979500852 M-27.808237382079525 22.20933477963379 C-28.20202652317051 21.934644521665888, -28.595815664261494 21.659954263697987, -29.20149155801722 21.237460979500852 M-29.20149155801722 21.237460979500852 C-29.686737137042403 20.850490543155438, -30.171982716067586 20.463520106810023, -30.529614975656386 20.17831789678207 M-29.20149155801722 21.237460979500852 C-29.551563313705504 20.958288070140103, -29.901635069393787 20.679115160779357, -30.529614975656386 20.17831789678207 M-30.529614975656386 20.17831789678207 C-30.972707524466603 19.77591296753904, -31.41580007327682 19.37350803829601, -31.787150090992377 19.036257777589793 M-30.529614975656386 20.17831789678207 C-30.936797789273843 19.808525238921575, -31.3439806028913 19.438732581061082, -31.787150090992377 19.036257777589793 M-31.787150090992377 19.036257777589793 C-32.121620022126045 18.690890113202236, -32.45608995325972 18.34552244881468, -32.96892942249586 17.815973591924894 M-31.787150090992377 19.036257777589793 C-32.13529173022697 18.676772952119922, -32.483433369461565 18.317288126650055, -32.96892942249586 17.815973591924894 M-32.96892942249586 17.815973591924894 C-33.22880391005941 17.510710231555503, -33.48867839762296 17.20544687118611, -34.07009678540278 16.522479749256444 M-32.96892942249586 17.815973591924894 C-33.218822611686655 17.522434832576103, -33.468715800877455 17.228896073227315, -34.07009678540278 16.522479749256444 M-34.07009678540278 16.522479749256444 C-34.399987026752754 16.080456879466727, -34.72987726810273 15.638434009677011, -35.08612724681932 15.161091493237505 M-34.07009678540278 16.522479749256444 C-34.451499908100935 16.011434311380203, -34.83290303079909 15.500388873503962, -35.08612724681932 15.161091493237505 M-35.08612724681932 15.161091493237505 C-35.326344355510095 14.792053506962917, -35.566561464200866 14.42301552068833, -36.01284571964166 13.737403060228928 M-35.08612724681932 15.161091493237505 C-35.30114457089112 14.830767143227316, -35.51616189496291 14.500442793217129, -36.01284571964166 13.737403060228928 M-36.01284571964166 13.737403060228928 C-36.27648321721749 13.269287987091575, -36.540120714793325 12.80117291395422, -36.8464441188845 12.257264691382137 M-36.01284571964166 13.737403060228928 C-36.25984391955852 13.298832744996668, -36.50684211947539 12.860262429764408, -36.8464441188845 12.257264691382137 M-36.8464441188845 12.257264691382137 C-37.119744723809035 11.68975013756018, -37.39304532873357 11.122235583738224, -37.58349700991903 10.726758592743446 M-36.8464441188845 12.257264691382137 C-37.125353041493376 11.678104345889867, -37.404261964102254 11.0989440003976, -37.58349700991903 10.726758592743446 M-37.58349700991903 10.726758592743446 C-37.761964022373284 10.28594162155647, -37.94043103482755 9.845124650369494, -38.220975684318645 9.152173942164668 M-37.58349700991903 10.726758592743446 C-37.77896002814003 10.243961158717207, -37.974423046361025 9.761163724690968, -38.220975684318645 9.152173942164668 M-38.220975684318645 9.152173942164668 C-38.349507604195985 8.765056278274479, -38.47803952407333 8.37793861438429, -38.75626060547151 7.53998104572236 M-38.220975684318645 9.152173942164668 C-38.38546733553856 8.656751296875786, -38.54995898675846 8.161328651586905, -38.75626060547151 7.53998104572236 M-38.75626060547151 7.53998104572236 C-38.84590685722436 7.198121034857477, -38.9355531089772 6.8562610239925945, -39.18715217281832 5.896804749842338 M-38.75626060547151 7.53998104572236 C-38.88358996195454 7.054419024560364, -39.01091931843758 6.568857003398366, -39.18715217281832 5.896804749842338 M-39.18715217281832 5.896804749842338 C-39.26032960242326 5.521054114876192, -39.3335070320282 5.145303479910045, -39.51187976048293 4.2293972183845625 M-39.18715217281832 5.896804749842338 C-39.26686284666672 5.487507286487711, -39.346573520515115 5.078209823133084, -39.51187976048293 4.2293972183845625 M-39.51187976048293 4.2293972183845625 C-39.58332877653585 3.6752527590821824, -39.65477779258877 3.1211082997798028, -39.72910899315375 2.5446101865535864 M-39.51187976048293 4.2293972183845625 C-39.59740083009754 3.5661126904989584, -39.68292189971216 2.9028281626133543, -39.72910899315375 2.5446101865535864 M-39.72910899315375 2.5446101865535864 C-39.77173555474275 1.880667082263795, -39.81436211633174 1.2167239779740036, -39.83794722931823 0.8493668056488652 M-39.72910899315375 2.5446101865535864 C-39.75738873489267 2.104130381973236, -39.78566847663159 1.6636505773928862, -39.83794722931823 0.8493668056488652 M-39.83794722931823 0.8493668056488652 C-39.83794722931823 0.29527475640163625, -39.83794722931823 -0.25881729284559274, -39.83794722931823 -0.8493668056488524 M-39.83794722931823 0.8493668056488652 C-39.83794722931823 0.47504038202843585, -39.83794722931823 0.10071395840800645, -39.83794722931823 -0.8493668056488524 M-39.83794722931823 -0.8493668056488524 C-39.79837096545377 -1.465799060723056, -39.7587947015893 -2.0822313157972596, -39.72910899315375 -2.54461018655355 M-39.83794722931823 -0.8493668056488524 C-39.811253574729356 -1.2651420226007164, -39.78455992014048 -1.6809172395525804, -39.72910899315375 -2.54461018655355 M-39.72910899315375 -2.54461018655355 C-39.6824569026495 -2.9064345880072886, -39.63580481214524 -3.2682589894610268, -39.51187976048293 -4.22939721838455 M-39.72910899315375 -2.54461018655355 C-39.66253366102841 -3.0609553157313405, -39.59595832890308 -3.577300444909131, -39.51187976048293 -4.22939721838455 M-39.51187976048293 -4.22939721838455 C-39.43596302835238 -4.619213592867883, -39.36004629622184 -5.009029967351217, -39.18715217281833 -5.8968047498423255 M-39.51187976048293 -4.22939721838455 C-39.41423544053806 -4.730780164167129, -39.31659112059319 -5.232163109949708, -39.18715217281833 -5.8968047498423255 M-39.18715217281833 -5.8968047498423255 C-39.02638068176283 -6.50989612404193, -38.86560919070733 -7.1229874982415335, -38.75626060547151 -7.539981045722347 M-39.18715217281833 -5.8968047498423255 C-39.03716672583542 -6.468764263292082, -38.88718127885251 -7.040723776741837, -38.75626060547151 -7.539981045722347 M-38.75626060547151 -7.539981045722347 C-38.56510661530458 -8.115706407852846, -38.373952625137655 -8.691431769983344, -38.22097568431866 -9.152173942164634 M-38.75626060547151 -7.539981045722347 C-38.57508663335514 -8.08564818358449, -38.39391266123878 -8.631315321446635, -38.22097568431866 -9.152173942164634 M-38.22097568431866 -9.152173942164634 C-37.98335178816637 -9.739109559806291, -37.745727892014074 -10.326045177447948, -37.58349700991903 -10.726758592743431 M-38.22097568431866 -9.152173942164634 C-37.99362983262563 -9.713722591279437, -37.7662839809326 -10.27527124039424, -37.58349700991903 -10.726758592743431 M-37.58349700991903 -10.726758592743431 C-37.359307432665226 -11.192293046799463, -37.13511785541142 -11.657827500855495, -36.846444118884506 -12.257264691382126 M-37.58349700991903 -10.726758592743431 C-37.37161122047882 -11.166743968145656, -37.1597254310386 -11.60672934354788, -36.846444118884506 -12.257264691382126 M-36.846444118884506 -12.257264691382126 C-36.52075348572945 -12.83556139030174, -36.195062852574395 -13.413858089221351, -36.012845719641675 -13.73740306022892 M-36.846444118884506 -12.257264691382126 C-36.5218492934445 -12.833615672741116, -36.19725446800448 -13.409966654100106, -36.012845719641675 -13.73740306022892 M-36.012845719641675 -13.73740306022892 C-35.773830448770674 -14.104594700873692, -35.534815177899674 -14.471786341518463, -35.08612724681933 -15.161091493237496 M-36.012845719641675 -13.73740306022892 C-35.74979103310538 -14.141525698822537, -35.486736346569096 -14.545648337416154, -35.08612724681933 -15.161091493237496 M-35.08612724681933 -15.161091493237496 C-34.87773824623958 -15.440313769385854, -34.66934924565984 -15.719536045534213, -34.0700967854028 -16.522479749256433 M-35.08612724681933 -15.161091493237496 C-34.836968091780335 -15.494942062123767, -34.58780893674134 -15.82879263101004, -34.0700967854028 -16.522479749256433 M-34.0700967854028 -16.522479749256433 C-33.84311732900662 -16.789102734236337, -33.61613787261044 -17.05572571921624, -32.968929422495876 -17.815973591924887 M-34.0700967854028 -16.522479749256433 C-33.76807232503277 -16.877254866085718, -33.466047864662734 -17.232029982914998, -32.968929422495876 -17.815973591924887 M-32.968929422495876 -17.815973591924887 C-32.635889979777694 -18.15986415957817, -32.302850537059506 -18.503754727231453, -31.787150090992405 -19.036257777589768 M-32.968929422495876 -17.815973591924887 C-32.73003045221714 -18.062656392707904, -32.49113148193842 -18.309339193490924, -31.787150090992405 -19.036257777589768 M-31.787150090992405 -19.036257777589768 C-31.476185401247122 -19.31866768114161, -31.165220711501835 -19.60107758469345, -30.529614975656415 -20.178317896782044 M-31.787150090992405 -19.036257777589768 C-31.525386451193143 -19.273984589369075, -31.263622811393883 -19.511711401148382, -30.529614975656415 -20.178317896782044 M-30.529614975656415 -20.178317896782044 C-30.060956418562657 -20.55206062453634, -29.5922978614689 -20.925803352290636, -29.20149155801723 -21.237460979500845 M-30.529614975656415 -20.178317896782044 C-30.174229650316196 -20.461728236540186, -29.818844324975977 -20.745138576298324, -29.20149155801723 -21.237460979500845 M-29.20149155801723 -21.237460979500845 C-28.905102250325456 -21.44420933006029, -28.60871294263368 -21.650957680619733, -27.808237382079554 -22.209334779633767 M-29.20149155801723 -21.237460979500845 C-28.671492295152103 -21.60716552197725, -28.141493032286974 -21.976870064453657, -27.808237382079554 -22.209334779633767 M-27.808237382079554 -22.209334779633767 C-27.299756749080725 -22.51757872752154, -26.791276116081892 -22.825822675409313, -26.355577628104356 -23.089945659269816 M-27.808237382079554 -22.209334779633767 C-27.313233507396493 -22.5094090374323, -26.81822963271343 -22.809483295230827, -26.355577628104356 -23.089945659269816 M-26.355577628104356 -23.089945659269816 C-25.789162739131935 -23.385443944040677, -25.222747850159514 -23.68094222881154, -24.849481586615298 -23.875674999414105 M-26.355577628104356 -23.089945659269816 C-25.85666750676233 -23.350226750006765, -25.35775738542031 -23.610507840743715, -24.849481586615298 -23.875674999414105 M-24.849481586615298 -23.875674999414105 C-24.464041240459007 -24.046298006975864, -24.07860089430272 -24.216921014537622, -23.29613812930343 -24.56329406966957 M-24.849481586615298 -23.875674999414105 C-24.31276940050469 -24.113261563203945, -23.77605721439408 -24.35084812699378, -23.29613812930343 -24.56329406966957 M-23.29613812930343 -24.56329406966957 C-22.726462949177815 -24.772939801975436, -22.1567877690522 -24.9825855342813, -21.70193027762597 -25.149977295782712 M-23.29613812930343 -24.56329406966957 C-22.781045243806915 -24.752853012998724, -22.2659523583104 -24.94241195632788, -21.70193027762597 -25.149977295782712 M-21.70193027762597 -25.149977295782712 C-21.186294017058955 -25.30301543128904, -20.670657756491938 -25.456053566795365, -20.07340897360197 -25.633313870534273 M-21.70193027762597 -25.149977295782712 C-21.153318702288423 -25.312802331621974, -20.604707126950878 -25.475627367461232, -20.07340897360197 -25.633313870534273 M-20.07340897360197 -25.633313870534273 C-19.538960825107846 -25.755298172827953, -19.004512676613725 -25.877282475121635, -18.417266160586376 -26.011317660263227 M-20.07340897360197 -25.633313870534273 C-19.70551912839938 -25.717282326996166, -19.33762928319679 -25.80125078345806, -18.417266160586376 -26.011317660263227 M-18.417266160586376 -26.011317660263227 C-18.079229469360126 -26.065968810986995, -17.741192778133875 -26.120619961710762, -16.740307284639428 -26.28243536631602 M-18.417266160586376 -26.011317660263227 C-17.97072149287319 -26.08351153913348, -17.52417682516 -26.155705418003727, -16.740307284639428 -26.28243536631602 M-16.740307284639428 -26.28243536631602 C-16.08895123796812 -26.345270900768142, -15.437595191296813 -26.408106435220265, -15.049423329488894 -26.44555290788391 M-16.740307284639428 -26.28243536631602 C-16.355441039826335 -26.319562950083757, -15.970574795013246 -26.3566905338515, -15.049423329488894 -26.44555290788391 M-15.049423329488894 -26.44555290788391 C-14.654563918828098 -26.458215280636587, -14.2597045081673 -26.47087765338926, -13.351562500000009 -26.5 M-15.049423329488894 -26.44555290788391 C-14.63256828948235 -26.45892063765781, -14.215713249475806 -26.472288367431705, -13.351562500000009 -26.5 M-13.351562500000009 -26.5 C-13.351562500000007 -26.5, -13.351562500000004 -26.5, -13.3515625 -26.5 M-13.351562500000009 -26.5 C-13.351562500000007 -26.5, -13.351562500000005 -26.5, -13.3515625 -26.5" stroke="#111827" stroke-width="2" fill="none" stroke-dasharray="0 0" style="fill:#111827 !important;stroke:#111827 !important;stroke-width:2px !important"/></g><g class="label" style="color:#ffffff !important" transform="translate(-23.2265625, -16.5)"><rect/><foreignObject width="46.453125" height="33"><div style="color: rgb(255, 255, 255) !important; display: table-cell; white-space: nowrap; line-height: 1.5; max-width: 200px; text-align: center;" xmlns="http://www.w3.org/1999/xhtml"><span style="color:#ffffff !important" class="nodeLabel"><p>User</p></span></div></foreignObject></g></g><g class="node default interface" id="my-svg-flowchart-UI-1" data-look="classic" transform="translate(577.6875, 127)"><rect class="basic label-container" style="fill:#dbeafe !important;stroke:#2563eb !important;stroke-width:2px !important" x="-140" y="-86" width="280" height="172"/><g class="label" style="color:#111827 !important" transform="translate(-100, -66)"><rect/><foreignObject width="200" height="132"><div style="color: rgb(17, 24, 39) !important; display: table; white-space: break-spaces; line-height: 1.5; max-width: 200px; text-align: center; width: 200px;" xmlns="http://www.w3.org/1999/xhtml"><span style="color:#111827 !important" class="nodeLabel"><p>Dashboard or CLI<br /><b>choose phrase</b><br />record • synth • review</p></span></div></foreignObject></g></g><g class="node default data" id="my-svg-flowchart-DATA-2" data-look="classic" transform="translate(1007.375, 127)"><rect class="basic label-container" style="fill:#fef3c7 !important;stroke:#d97706 !important;stroke-width:2px !important" x="-140" y="-119" width="280" height="238"/><g class="label" style="color:#111827 !important" transform="translate(-100, -99)"><rect/><foreignObject width="200" height="198"><div style="color: rgb(17, 24, 39) !important; display: table; white-space: break-spaces; line-height: 1.5; max-width: 200px; text-align: center; width: 200px;" xmlns="http://www.w3.org/1999/xhtml"><span style="color:#111827 !important" class="nodeLabel"><p>Local project data<br /><b>forge_config.json + samples/</b><br />positives • negatives • generated clips</p></span></div></foreignObject></g></g><g class="node default gate" id="my-svg-flowchart-REVIEW-3" data-look="classic" transform="translate(1567.375, 145.25)"><rect class="basic label-container" style="fill:#fee2e2 !important;stroke:#dc2626 !important;stroke-width:2px !important" x="-140" y="-119" width="280" height="238"/><g class="label" style="color:#111827 !important" transform="translate(-100, -99)"><rect/><foreignObject width="200" height="198"><div style="color: rgb(17, 24, 39) !important; display: table; white-space: break-spaces; line-height: 1.5; max-width: 200px; text-align: center; width: 200px;" xmlns="http://www.w3.org/1999/xhtml"><span style="color:#111827 !important" class="nodeLabel"><p>Human review gates<br /><b>review-samples + audit-generated</b><br />fingerprinted approvals</p></span></div></foreignObject></g></g><g class="node default train" id="my-svg-flowchart-TRAIN-4" data-look="classic" transform="translate(2035, 257.25)"><rect class="basic label-container" style="fill:#dcfce7 !important;stroke:#16a34a !important;stroke-width:2px !important" x="-140" y="-102.5" width="280" height="205"/><g class="label" style="color:#111827 !important" transform="translate(-100, -82.5)"><rect/><foreignObject width="200" height="165"><div style="color: rgb(17, 24, 39) !important; display: table; white-space: break-spaces; line-height: 1.5; max-width: 200px; text-align: center; width: 200px;" xmlns="http://www.w3.org/1999/xhtml"><span style="color:#111827 !important" class="nodeLabel"><p>Train/export<br /><b>run_training → DSCNNTrainer</b><br />log-mel DS-CNN • ONNX</p></span></div></foreignObject></g></g><g class="node default gate" id="my-svg-flowchart-QC-5" data-look="classic" transform="translate(2395, 257.25)"><rect class="basic label-container" style="fill:#fee2e2 !important;stroke:#dc2626 !important;stroke-width:2px !important" x="-140" y="-86" width="280" height="172"/><g class="label" style="color:#111827 !important" transform="translate(-100, -66)"><rect/><foreignObject width="200" height="132"><div style="color: rgb(17, 24, 39) !important; display: table; white-space: break-spaces; line-height: 1.5; max-width: 200px; text-align: center; width: 200px;" xmlns="http://www.w3.org/1999/xhtml"><span style="color:#111827 !important" class="nodeLabel"><p>Live quality gate<br /><b>quality-check</b><br />hits • false triggers • score range</p></span></div></foreignObject></g></g><g class="node default gate" id="my-svg-flowchart-ACCEPT-6" data-look="classic" transform="translate(2755, 145.25)"><rect class="basic label-container" style="fill:#fee2e2 !important;stroke:#dc2626 !important;stroke-width:2px !important" x="-140" y="-86" width="280" height="172"/><g class="label" style="color:#111827 !important" transform="translate(-100, -66)"><rect/><foreignObject width="200" height="132"><div style="color: rgb(17, 24, 39) !important; display: table; white-space: break-spaces; line-height: 1.5; max-width: 200px; text-align: center; width: 200px;" xmlns="http://www.w3.org/1999/xhtml"><span style="color:#111827 !important" class="nodeLabel"><p>Acceptance gate<br /><b>accept-model</b><br />approval bound to model hash</p></span></div></foreignObject></g></g><g class="node default output" id="my-svg-flowchart-OUT-7" data-look="classic" transform="translate(3315, 309)"><rect class="basic label-container" style="fill:#ede9fe !important;stroke:#7c3aed !important;stroke-width:2px !important" x="-140" y="-102.5" width="280" height="205"/><g class="label" style="color:#111827 !important" transform="translate(-100, -82.5)"><rect/><foreignObject width="200" height="165"><div style="color: rgb(17, 24, 39) !important; display: table; white-space: break-spaces; line-height: 1.5; max-width: 200px; text-align: center; width: 200px;" xmlns="http://www.w3.org/1999/xhtml"><span style="color:#111827 !important" class="nodeLabel"><p>Runtime artifacts<br /><b>wakeword.onnx</b><br />config.json • threshold • metadata</p></span></div></foreignObject></g></g><g class="node default output" id="my-svg-flowchart-USE-8" data-look="classic" transform="translate(3675, 309)"><rect class="basic label-container" style="fill:#ede9fe !important;stroke:#7c3aed !important;stroke-width:2px !important" x="-140" y="-86" width="280" height="172"/><g class="label" style="color:#111827 !important" transform="translate(-100, -66)"><rect/><foreignObject width="200" height="132"><div style="color: rgb(17, 24, 39) !important; display: table; white-space: break-spaces; line-height: 1.5; max-width: 200px; text-align: center; width: 200px;" xmlns="http://www.w3.org/1999/xhtml"><span style="color:#111827 !important" class="nodeLabel"><p>Use it<br /><b>local voice app</b><br />live mic test / embedded runtime</p></span></div></foreignObject></g></g><g class="node default verify" id="my-svg-flowchart-QA-9" data-look="classic" transform="translate(148, 340.75)"><rect class="basic label-container" style="fill:#f1f5f9 !important;stroke:#64748b !important;stroke-width:2px !important" x="-140" y="-86" width="280" height="172"/><g class="label" style="color:#111827 !important" transform="translate(-100, -66)"><rect/><foreignObject width="200" height="132"><div style="color: rgb(17, 24, 39) !important; display: table; white-space: break-spaces; line-height: 1.5; max-width: 200px; text-align: center; width: 200px;" xmlns="http://www.w3.org/1999/xhtml"><span style="color:#111827 !important" class="nodeLabel"><p>Release hygiene<br /><b>make check</b><br />pytest • ruff • public scan</p></span></div></foreignObject></g></g></g></g></g><defs><filter id="my-svg-drop-shadow" height="130%" width="130%"><feDropShadow dx="4" dy="4" stdDeviation="0" flood-opacity="0.06" flood-color="#000000"/></filter></defs><defs><filter id="my-svg-drop-shadow-small" height="150%" width="150%"><feDropShadow dx="2" dy="2" stdDeviation="0" flood-opacity="0.06" flood-color="#000000"/></filter></defs><linearGradient id="my-svg-gradient" gradientUnits="objectBoundingBox" x1="0%" y1="0%" x2="100%" y2="0%"><stop offset="0%" stop-color="#111827" stop-opacity="1"/><stop offset="100%" stop-color="hsl(-120, 0%, 90%)" stop-opacity="1"/></linearGradient></svg>